<?xml version="1.0" encoding="UTF-8"?>
<!DOCTYPE svg PUBLIC "-//W3C//DTD SVG 1.1//EN" "http://www.w3.org/Graphics/SVG/1.1/DTD/svg11.dtd">
<svg xmlns="http://www.w3.org/2000/svg" version="1.1" width="179px" height="289px" style="shape-rendering:geometricPrecision; text-rendering:geometricPrecision; image-rendering:optimizeQuality; fill-rule:evenodd; clip-rule:evenodd" xmlns:xlink="http://www.w3.org/1999/xlink">
<g><path style="opacity:0.735" fill="#00ffdc" d="M 97.5,2.5 C 100.541,2.37939 102.208,3.87939 102.5,7C 96.1522,24.3749 91.6522,42.2082 89,60.5C 88.3333,70.1667 88.3333,79.8333 89,89.5C 89.2685,94.6496 90.2685,99.6496 92,104.5C 118.332,125.66 144.832,146.66 171.5,167.5C 173.479,173.981 174.646,180.647 175,187.5C 175.167,194 175.333,200.5 175.5,207C 178.58,223.433 173.58,236.766 160.5,247C 145.514,260.497 128.848,271.497 110.5,280C 104.206,281.99 97.8728,283.823 91.5,285.5C 71.3601,276.27 52.6934,264.77 35.5,251C 24.7307,242.234 14.564,232.734 5,222.5C 4.02964,220.726 3.19631,218.893 2.5,217C 2.95409,215.378 3.95409,214.212 5.5,213.5C 30.4134,225.849 56.7467,231.349 84.5,230C 96.7054,229.65 106.205,224.483 113,214.5C 117.483,206.577 115.983,200.077 108.5,195C 80.3945,173.529 52.5612,151.695 25,129.5C 21.9177,126.341 19.5843,122.675 18,118.5C 15.8642,111.291 14.3642,103.958 13.5,96.5C 13.5753,91.8648 14.742,87.5315 17,83.5C 30.6153,62.8771 46.7819,44.3771 65.5,28C 76.0658,19.2559 86.7325,10.7559 97.5,2.5 Z M 98.5,4.5 C 99.3909,5.26133 100.058,6.26133 100.5,7.5C 93.6438,25.258 89.1438,43.5913 87,62.5C 85.7499,76.6902 86.7499,90.6902 90,104.5C 91.4578,106.96 93.2911,109.127 95.5,111C 120.691,129.877 145.524,149.043 170,168.5C 171.461,173.718 172.461,179.052 173,184.5C 173.286,195.512 173.786,206.512 174.5,217.5C 173.91,228.786 169.244,237.952 160.5,245C 156.091,247.867 152.091,251.201 148.5,255C 135.034,265.47 120.368,273.803 104.5,280C 100.185,281.272 95.8517,282.439 91.5,283.5C 82.7075,279.27 74.0409,274.77 65.5,270C 44.9072,257.08 26.0739,241.913 9,224.5C 7.30286,222.301 5.80286,219.968 4.5,217.5C 4.80762,216.692 5.30762,216.025 6,215.5C 32.6842,228.77 60.8508,233.937 90.5,231C 101.127,229.021 109.294,223.521 115,214.5C 116.492,209.589 116.826,204.589 116,199.5C 93.1055,180.971 69.9388,162.805 46.5,145C 38.8413,138.068 31.008,131.235 23,124.5C 15.9741,111.738 14.3074,98.4044 18,84.5C 31.2804,64.2121 47.1138,46.0454 65.5,30C 76.2076,20.9961 87.2076,12.4961 98.5,4.5 Z"/></g>
</svg>
